<?xml version="1.0" encoding="UTF-8" standalone="no"?>
<!DOCTYPE svg  PUBLIC '-//W3C//DTD SVG 1.1//EN'  'http://www.w3.org/Graphics/SVG/1.1/DTD/svg11.dtd'>
<svg version="1.1" xmlns="http://www.w3.org/2000/svg">
<defs>
<font id="AGAvalancheC" horiz-adv-x="554">
<font-face cap-height="739" underline-thickness="20" unicode-range="U+0020-0490" units-per-em="1000" underline-position="-153" ascent="786" font-family="AGAvalancheC" panose-1="0 0 5 0 0 0 0 0 0 0" descent="-214" x-height="547" bbox="-45 -214 1022 977" font-weight="400"/>
<missing-glyph/>
<glyph glyph-name="space" horiz-adv-x="277" unicode=" "/>
<glyph glyph-name="exclam" horiz-adv-x="295" unicode="!" d="M111 126h74v-126h-74v126zM111 739h74v-546h-74v546z"/>
<glyph glyph-name="quotedbl" horiz-adv-x="309" unicode='&quot;' d="M74 739h52v-226h-52v226zM185 739h52v-226h-52v226z"/>
<glyph glyph-name="numbersign" unicode="#" d="M154 250h-149l16 58h150l36 123h-149l16 58h151l73 250h42l-72 -250h89l74 250h41l-73 -250h150l-16 -58h-151l-36 -123h150l-17 -58h-151l-73 -250h-43l74 250h-90l-74 -250h-42zM304 308l35 123h-90l-36 -123h91z"/>
<glyph glyph-name="dollar" unicode="$" d="M245 29q-70 12 -120 64.5t-50 121.5v12h70q-2 -56 37 -95t96 -39q53 0 91.5 37.5t38.5 89.5q0 62 -34.5 93t-100.5 49q-89 25 -126 62q-49 50 -49 126q0 67 40.5 115t106.5 60v83h65v-83q71 -10 115.5 -60t46.5 -122h-70q-1 51 -35 84.5t-86 33.5q-43 0 -73 -25 q-39 -32 -39 -91q0 -29 8.5 -49t28 -33t36.5 -20t47 -16q95 -28 133 -65q57 -56 57 -141q0 -72 -49 -130t-120 -62v-83h-65v83z"/>
<glyph glyph-name="percent" horiz-adv-x="775" unicode="%" d="M513 739h72l-332 -739h-72zM361 576q0 -71 -51.5 -123t-121.5 -52q-71 0 -123 52.5t-52 124.5q0 74 50.5 123.5t125.5 49.5q73 0 122.5 -51t49.5 -124zM752 159q0 -71 -51.5 -121.5t-122.5 -50.5t-123 51t-52 122q0 74 51 126t125 52q73 0 123 -53t50 -126zM84 577 q0 -43 30.5 -74t72.5 -31q44 0 73.5 32t29.5 77q0 41 -29.5 70t-71.5 29q-46 0 -75.5 -29t-29.5 -74zM474 159q0 -42 31 -71.5t73 -29.5q44 0 73.5 30.5t29.5 74.5q0 42 -30 73t-72 31q-46 0 -75.5 -31t-29.5 -77z"/>
<glyph glyph-name="ampersand" horiz-adv-x="757" unicode="&amp;" d="M685 480l-137 -261l187 -182l-53 -50l-169 165q-82 -165 -227 -165q-95 0 -162 67t-67 162q0 137 166 220q-39 39 -58.5 73t-19.5 81q0 66 53 113t120 48q75 -1 128 -51t54 -124q-1 -59 -42 -101t-103 -65l140 -138l107 208h83zM248 362q-117 -58 -117 -152 q0 -61 44.5 -107t104.5 -45q34 0 62 11.5t49.5 34.5t35.5 45.5t31 55.5l-178 174zM322 680q-42 0 -72.5 -26.5t-30.5 -68.5q0 -7 1.5 -14.5t3.5 -13.5t6.5 -14t7 -12.5t9.5 -13t10 -11.5l11.5 -11.5l10.5 -10.5t11 -10.5t10 -9.5q126 44 126 122q0 38 -32.5 66t-71.5 28z "/>
<glyph glyph-name="quotesingle" horiz-adv-x="198" unicode="&apos;" d="M74 739h50v-226h-50v226z"/>
<glyph glyph-name="parenleft" horiz-adv-x="369" unicode="(" d="M335 675q-94 -54 -149.5 -157t-54.5 -214q-1 -107 56 -210.5t148 -155.5v-65q-52 14 -104 60t-89 100q-85 124 -85 271q0 146 79 268q38 58 90.5 105.5t108.5 61.5v-64z"/>
<glyph glyph-name="parenright" horiz-adv-x="369" unicode=")" d="M34 -62q92 51 148 154.5t56 211.5q0 112 -55 214.5t-149 155.5v65q109 -30 199 -167q79 -120 79 -268q0 -149 -85 -271q-37 -54 -89 -100t-104 -60v65z"/>
<glyph glyph-name="asterisk" horiz-adv-x="425" unicode="*" d="M360 582h-100l53 -88l-46 -28l-54 90l-52 -90l-48 28l54 88h-103v51h103l-54 90l48 28l52 -90l54 90l46 -28l-53 -90h100v-51z"/>
<glyph glyph-name="plus" horiz-adv-x="606" unicode="+" d="M265 554h76v-213h214v-76h-214v-216h-76v216h-214v76h214v213z"/>
<glyph glyph-name="comma" horiz-adv-x="277" unicode="," d="M179 126h74l-88 -193h-74z"/>
<glyph glyph-name="hyphen" horiz-adv-x="332" unicode="-" d="M302 334v-67h-271v67h271z"/>
<glyph glyph-name="hyphen" horiz-adv-x="332" unicode="­" d="M302 334v-67h-271v67h271z"/>
<glyph glyph-name="period" horiz-adv-x="277" unicode="." d="M101 126h74v-126h-74v126z"/>
<glyph glyph-name="slash" horiz-adv-x="437" unicode="/" d="M329 739h68l-291 -867h-66z"/>
<glyph glyph-name="zero" unicode="0" d="M30 473q0 61 12 105t46 85q71 88 190 88q111 0 182 -79q65 -71 65 -199v-192q0 -67 -10.5 -114t-43.5 -89q-73 -91 -193 -91q-117 0 -190 86q-36 43 -47 91t-11 117v192zM451 456q0 104 -32 151q-22 33 -61 53t-80 20q-44 0 -86 -23t-63 -61q-25 -46 -25 -140v-163 q0 -118 32 -164q51 -71 142 -71q100 0 148 82q25 43 25 153v163z"/>
<glyph glyph-name="one" unicode="1" d="M280 672h-125v67h199v-739h-74v672z"/>
<glyph glyph-name="two" unicode="2" d="M33 66l282 272q37 36 56 56t40 58t21 74q0 66 -48 110t-114 44q-41 0 -78 -21t-58 -56q-23 -39 -21 -103h-74q-5 107 62.5 179t174.5 72q95 0 160 -65q70 -70 70 -159q0 -31 -9 -61t-19 -50t-34 -48t-36.5 -40.5t-43.5 -42.5l-229 -218h367v-67h-469v66z"/>
<glyph glyph-name="three" unicode="3" d="M83 555q0 83 52.5 139.5t136.5 56.5q78 0 131 -55.5t53 -133.5q0 -80 -76 -139q56 -25 90 -80.5t34 -117.5q0 -99 -69.5 -168.5t-168.5 -69.5t-167 72.5t-66 171.5h74q4 -61 25 -95q23 -35 58 -56.5t74 -21.5q70 0 118 48.5t48 117.5q0 52 -31 94.5t-79 59.5 q-22 8 -100 10v66l25 -2q59 0 98 29.5t39 86.5q0 49 -33.5 80.5t-82.5 31.5t-79 -37t-30 -88h-74z"/>
<glyph glyph-name="four" unicode="4" d="M386 135h-374v67l358 537h90v-537h67v-67h-67v-135h-74v135zM386 637l-287 -435h287v435z"/>
<glyph glyph-name="five" unicode="5" d="M133 739h334v-67h-274l-37 -204q60 35 125 35q104 0 175.5 -76.5t71.5 -180.5q0 -106 -71.5 -182.5t-176.5 -76.5q-103 0 -174.5 70.5t-79.5 174.5h74q5 -72 54.5 -123t121.5 -51q76 0 127 55t51 131t-50.5 132t-126.5 56q-88 0 -152 -78l-59 21z"/>
<glyph glyph-name="six" unicode="6" d="M381 739l-175 -260q38 23 88 23q98 0 166.5 -79t68.5 -178q0 -101 -72 -180q-73 -78 -182 -78q-103 0 -176.5 76.5t-73.5 180.5q0 14 1.5 28.5t3 25.5t6.5 25.5t7.5 22.5t10.5 23t10.5 20.5t13 22t13 20.5t15 22.5t14.5 22.5l175 262h86zM99 249q0 -78 50.5 -134.5 t126.5 -56.5q74 0 126.5 55t52.5 130q0 76 -51.5 132t-127.5 56q-74 0 -125.5 -53.5t-51.5 -128.5z"/>
<glyph glyph-name="seven" unicode="7" d="M412 672h-348v67h426v-67l-302 -672h-80z"/>
<glyph glyph-name="eight" unicode="8" d="M81 561q0 83 58 136.5t141 53.5q81 0 137 -57t56 -138q0 -46 -23.5 -85.5t-64.5 -57.5q57 -25 92 -79t35 -116q0 -97 -70.5 -164t-167.5 -67q-95 0 -163.5 67.5t-68.5 162.5q0 61 35 118.5t90 77.5q-42 20 -64 59.5t-22 88.5zM116 213q0 -65 46.5 -110t111.5 -45 q69 0 116.5 46t47.5 114q0 66 -48 110.5t-115 44.5t-113 -46.5t-46 -113.5zM155 565q0 -52 36 -86.5t88 -34.5q48 0 84 35t36 83q0 49 -35 83.5t-84 34.5q-50 0 -87.5 -32.5t-37.5 -82.5z"/>
<glyph glyph-name="nine" unicode="9" d="M173 0l175 259q-38 -23 -89 -23q-98 0 -166 79t-68 178q0 103 72 180q73 78 182 78q103 0 176.5 -76t73.5 -180q0 -14 -1.5 -28.5t-3 -25.5t-6.5 -25.5t-7.5 -22.5t-10.5 -23t-10.5 -20.5t-13 -22t-13 -20.5t-15 -22.5t-14.5 -22.5l-175 -262h-86zM278 310 q74 -4 125.5 50t51.5 129q0 78 -50.5 134.5t-126.5 56.5q-74 0 -127 -55t-52 -129q-1 -75 54 -132.5t125 -53.5z"/>
<glyph glyph-name="colon" horiz-adv-x="277" unicode=":" d="M101 126h74v-126h-74v126zM101 510h74v-126h-74v126z"/>
<glyph glyph-name="semicolon" horiz-adv-x="277" unicode=";" d="M129 126h74l-88 -193h-74zM129 510h74v-126h-74v126z"/>
<glyph glyph-name="less" horiz-adv-x="606" unicode="&lt;" d="M558 110v-73l-509 232v64l509 232v-73l-414 -191z"/>
<glyph glyph-name="equal" horiz-adv-x="606" unicode="=" d="M555 361h-504v75h504v-75zM555 166h-504v75h504v-75z"/>
<glyph glyph-name="greater" horiz-adv-x="606" unicode="&gt;" d="M462 301l-414 191v73l509 -232v-64l-509 -232v73z"/>
<glyph glyph-name="question" horiz-adv-x="591" unicode="?" d="M264 126h74v-126h-74v126zM65 508v21q0 42 18.5 83.5t49.5 71.5q69 67 169 67q96 0 159.5 -64.5t63.5 -160.5q0 -42 -19 -78t-46 -62.5t-54.5 -53t-47 -62.5t-20.5 -77h-74q-4 105 104 202q52 48 66 72q17 30 17 67q0 62 -47 104.5t-109 41.5q-68 1 -116 -51.5 t-43 -120.5h-71z"/>
<glyph glyph-name="at" horiz-adv-x="867" unicode="@" d="M780 176q-47 -87 -137 -137.5t-190 -50.5q-161 0 -271.5 112t-110.5 273q0 157 112.5 268t270.5 111q136 0 237 -87q106 -92 106 -232q0 -101 -59 -184q-78 -110 -176 -110q-29 0 -54 13.5t-33 39.5q-48 -51 -120 -51q-63 0 -101.5 44t-38.5 107q0 69 30.5 138.5 t89.5 118.5t130 49q37 0 67.5 -17.5t45.5 -49.5l15 47h68l-102 -305q-13 -36 -13 -52q0 -13 8.5 -21t21.5 -8q31 0 65 25t56 56q51 73 51 164q0 118 -88.5 192t-208.5 74q-138 0 -233.5 -99.5t-95.5 -237.5q0 -136 97.5 -232.5t233.5 -96.5q78 0 150 37t117 101zM485 294 q52 102 52 171q0 30 -20 51.5t-50 21.5q-50 0 -92 -41.5t-62.5 -96.5t-20.5 -103q0 -38 20.5 -65t57.5 -27q36 0 66.5 26.5t48.5 62.5z"/>
<glyph glyph-name="A" horiz-adv-x="740" unicode="A" d="M330 739h82l317 -739h-80l-107 248h-344l-107 -248h-80zM513 315l-142 339l-144 -339h286z"/>
<glyph glyph-name="B" horiz-adv-x="574" unicode="B" d="M76 739h173q111 0 168 -37q40 -26 63.5 -68.5t23.5 -90.5q0 -90 -82 -148q58 -24 90 -73t32 -113q0 -51 -24.5 -96.5t-66.5 -72.5q-30 -19 -69 -28t-59 -10t-75 -2h-174v739zM241 67q109 -2 156 22q32 17 52.5 50.5t19.5 68.5q1 47 -24 82.5t-68 50.5t-149 15h-78v-289 h91zM230 423q100 0 140 22q27 14 43.5 43t16.5 60q0 30 -16.5 58t-42.5 44q-43 26 -135 22h-86v-249h80z"/>
<glyph glyph-name="C" horiz-adv-x="813" unicode="C" d="M685 549q-40 61 -111 96t-147 35q-125 0 -217 -93t-92 -215q0 -129 93.5 -221.5t220.5 -92.5q74 0 143 37t113 98h82q-48 -92 -141 -149t-197 -57q-163 0 -275.5 111t-112.5 274q0 157 112 268t270 111q120 0 213 -62q40 -25 77 -63.5t51 -76.5h-82z"/>
<glyph glyph-name="D" horiz-adv-x="744" unicode="D" d="M76 739h199q185 -2 290 -86q63 -52 99 -127t36 -155q0 -79 -32 -150.5t-89 -124.5q-61 -56 -132 -76t-167 -20h-204v739zM245 67q63 1 97.5 3.5t82.5 18t87 46.5q112 88 114 236q-2 144 -115 234q-55 43 -116.5 55.5t-149.5 11.5h-95v-605h95z"/>
<glyph glyph-name="E" horiz-adv-x="536" unicode="E" d="M76 739h404v-67h-330v-266h319v-67h-319v-272h330v-67h-404v739z"/>
<glyph glyph-name="F" horiz-adv-x="485" unicode="F" d="M76 739h375v-67h-301v-267h290v-67h-290v-338h-74v739z"/>
<glyph glyph-name="G" horiz-adv-x="872" unicode="G" d="M831 341q-10 -150 -125 -252t-266 -102q-161 0 -278.5 112.5t-117.5 273.5q0 72 30.5 142.5t83.5 122.5q114 113 282 113q121 0 217 -63q42 -28 79 -67.5t50 -78.5h-84q-38 64 -110.5 101t-151.5 37q-130 0 -220 -83q-47 -43 -74.5 -103t-27.5 -122q0 -133 95.5 -223.5 t229.5 -90.5q101 0 186.5 60.5t112.5 155.5h-413v67h502z"/>
<glyph glyph-name="H" horiz-adv-x="683" unicode="H" d="M76 739h74v-325h383v325h74v-739h-74v347h-383v-347h-74v739z"/>
<glyph glyph-name="I" horiz-adv-x="226" unicode="I" d="M76 739h74v-739h-74v739z"/>
<glyph glyph-name="J" horiz-adv-x="482" unicode="J" d="M406 208q0 -5 -1.5 -26.5t-2 -27.5t-3 -22.5t-6.5 -25.5t-11 -21.5t-16 -24.5q-58 -73 -158 -73q-81 0 -138 54t-59 134h73q4 -52 41 -84.5t90 -32.5q37 0 66 20t42 54q9 26 9 98v509h74v-531z"/>
<glyph glyph-name="K" horiz-adv-x="591" unicode="K" d="M76 739h74v-425l341 425h94l-292 -360l292 -379h-92l-247 320l-96 -118v-202h-74v739z"/>
<glyph glyph-name="L" horiz-adv-x="462" unicode="L" d="M76 739h74v-672h306v-67h-380v739z"/>
<glyph glyph-name="M" horiz-adv-x="919" unicode="M" d="M76 739h114l270 -629l269 629h114v-739h-74v657l-278 -657h-63l-278 657v-657h-74v739z"/>
<glyph glyph-name="N" horiz-adv-x="740" unicode="N" d="M76 739h100l414 -613v613h74v-739h-74l-440 650v-650h-74v739z"/>
<glyph glyph-name="O" horiz-adv-x="869" unicode="O" d="M825 371q0 -160 -115 -272t-276 -112q-157 0 -273.5 111t-116.5 268q0 160 114.5 272t275.5 112q158 0 274.5 -111t116.5 -268zM435 680q-131 -1 -224 -93t-93 -221q0 -127 95 -217.5t222 -90.5q131 0 223.5 91.5t92.5 221.5q0 127 -94 217.5t-222 90.5v1z"/>
<glyph glyph-name="P" horiz-adv-x="592" unicode="P" d="M76 739h194q46 -1 71 -2.5t62 -10.5t65 -27q97 -61 97 -182q0 -109 -84 -171q-65 -48 -192 -48h-139v-298h-74v739zM277 365q101 0 149 30q31 19 48 52.5t17 70.5q0 48 -24 84t-68 54q-14 6 -29 9.5t-33 5t-28.5 2t-33.5 0t-30 -0.5h-95v-307h127z"/>
<glyph glyph-name="Q" horiz-adv-x="871" unicode="Q" d="M827 -13h-9q-90 0 -156 63q-92 -63 -222 -63q-160 0 -278 109t-118 268q0 167 115 277t283 110q169 0 283 -110.5t114 -278.5q0 -76 -33 -147t-91 -124q50 -36 96 -36l16 1v-69zM566 132q-74 58 -125 76q-84 29 -167 29q-64 0 -114 -21q30 -59 103 -107q77 -51 183 -51 q97 0 159 44zM288 306q111 0 197.5 -40.5t178.5 -123.5q46 43 73.5 101.5t27.5 119.5q0 135 -94 226t-230 91q-134 0 -229 -91.5t-94 -225.5q-2 -42 12 -84q76 27 158 27z"/>
<glyph glyph-name="R" horiz-adv-x="607" unicode="R" d="M76 739h176q46 0 74 -1.5t67.5 -10t68.5 -24.5q56 -32 85.5 -86t29.5 -119q0 -90 -64 -155t-154 -67l208 -276h-92l-251 335h22h17h19t17.5 0.5t19.5 1t17.5 1.5t19 2.5t17 3.5t18.5 4.5t16 6.5q46 21 71 60.5t25 89.5q0 38 -19 74t-50 58q-23 16 -54.5 24.5t-52.5 9.5 t-60 1h-117v-672h-74v739z"/>
<glyph glyph-name="S" horiz-adv-x="498" unicode="S" d="M101 207q2 -62 44.5 -105.5t103.5 -43.5q64 0 108.5 41.5t44.5 104.5q0 64 -51 105q-34 28 -114 49q-93 24 -130 56q-62 53 -62 138q0 88 60.5 143.5t149.5 55.5q85 0 144.5 -58t58.5 -142h-77q-4 57 -41 93t-94 36q-53 0 -90 -38t-37 -91q0 -26 9 -46t20.5 -32t34.5 -23 t38 -16t44 -13q5 -2 21.5 -6t22.5 -6t20 -6.5t21.5 -8t18.5 -9t20 -12.5t18 -15q69 -60 69 -155q0 -90 -67 -153t-158 -63q-96 0 -163 62.5t-66 157.5h79z"/>
<glyph glyph-name="T" horiz-adv-x="426" unicode="T" d="M177 672h-170v67h412v-67h-168v-672h-74v672z"/>
<glyph glyph-name="U" horiz-adv-x="655" unicode="U" d="M150 739v-449q0 -101 34 -155q23 -36 61.5 -56.5t82.5 -20.5q40 0 76.5 17.5t59.5 49.5q41 55 41 165v449h74v-449q0 -138 -55 -209q-34 -45 -86 -69.5t-110 -24.5q-120 0 -193 88q-59 73 -59 215v449h74z"/>
<glyph glyph-name="V" horiz-adv-x="702" unicode="V" d="M10 739h81l259 -647l261 647h81l-307 -739h-70z"/>
<glyph glyph-name="W" horiz-adv-x="960" unicode="W" d="M10 739h77l181 -644l177 644h70l177 -643l181 643h77l-211 -739h-97l-162 606l-163 -606h-97z"/>
<glyph glyph-name="X" horiz-adv-x="609" unicode="X" d="M259 378l-236 361h86l196 -296l195 296h86l-239 -361l254 -378h-87l-209 316l-210 -316h-87z"/>
<glyph glyph-name="Y" horiz-adv-x="592" unicode="Y" d="M259 247l-257 492h81l213 -415l213 415h81l-257 -492v-247h-74v247z"/>
<glyph glyph-name="Z" horiz-adv-x="480" unicode="Z" d="M17 66l363 606h-352v67h435v-67l-362 -605h373v-67h-457v66z"/>
<glyph glyph-name="bracketleft" horiz-adv-x="351" unicode="[" d="M313 -127q-75 18 -132 81q-41 45 -55 91.5t-14 114.5v289q0 64 11 106.5t45 85.5q28 34 67 61.5t78 36.5v-76q-71 -31 -100 -81.5t-29 -132.5v-277q0 -88 26.5 -139t102.5 -84v-76z"/>
<glyph glyph-name="backslash" horiz-adv-x="605" unicode="\" d="M84 739h71l309 -739h-70z"/>
<glyph glyph-name="bracketright" horiz-adv-x="351" unicode="]" d="M38 739q76 -19 132 -82q41 -45 55 -91.5t14 -114.5v-289q0 -63 -11.5 -105.5t-45.5 -86.5q-26 -34 -65.5 -62t-78.5 -35v76q70 29 99.5 80.5t29.5 132.5v276q0 38 -1.5 56.5t-9.5 44t-25 50.5q-31 48 -93 74v76z"/>
<glyph glyph-name="asciicircum" horiz-adv-x="606" unicode="^" d="M18 180l255 559h58l257 -559h-64l-223 484l-219 -484h-64z"/>
<glyph glyph-name="underscore" horiz-adv-x="500" unicode="_" d="M0 -125v58h500v-58h-500z"/>
<glyph glyph-name="grave" horiz-adv-x="378" unicode="`" d="M304 671l-33 -58l-197 106l32 60z"/>
<glyph glyph-name="a" horiz-adv-x="683" unicode="a" d="M620 0h-71v103q-31 -56 -88 -86t-124 -30q-139 0 -241 116q-19 21 -36.5 69.5t-17.5 104.5q0 50 19.5 100t37.5 66q108 116 236 116q68 0 126 -30t88 -86v104h71v-547zM116 271q0 -89 66 -151t155 -62q85 0 148.5 63t63.5 149q0 91 -61.5 154.5t-152.5 63.5 q-90 0 -154.5 -63.5t-64.5 -153.5z"/>
<glyph glyph-name="b" horiz-adv-x="682" unicode="b" d="M63 739h74v-294q26 54 84 84t123 30q121 0 208.5 -81.5t87.5 -201.5q0 -55 -19.5 -104.5t-45.5 -77.5q-54 -61 -106.5 -84t-117.5 -23q-63 0 -125 28t-93 79v-94h-70v739zM190 422q-58 -58 -58 -153q0 -90 64 -150.5t155 -60.5q89 0 152 63.5t63 152.5q0 92 -64 153 t-156 61t-156 -66z"/>
<glyph glyph-name="c" horiz-adv-x="647" unicode="c" d="M607 160q-37 -81 -107.5 -127t-158.5 -46q-124 0 -211.5 82t-87.5 205q0 120 88 202.5t208 82.5q89 0 164 -48.5t106 -129.5h-83q-29 49 -79.5 78t-106.5 29q-92 0 -157.5 -61t-65.5 -152t63 -154t154 -63q119 0 192 102h82z"/>
<glyph glyph-name="d" horiz-adv-x="685" unicode="d" d="M622 0h-70v100q-81 -113 -221 -113q-122 0 -229 113q-22 19 -41 69t-19 106q0 121 86.5 202.5t207.5 81.5q64 0 121.5 -28t90.5 -79v287h74v-739zM331 488q-88 0 -151.5 -62t-63.5 -150q0 -90 63.5 -154t153.5 -64t153.5 64t63.5 154t-64.5 151t-154.5 61z"/>
<glyph glyph-name="e" horiz-adv-x="650" unicode="e" d="M116 247q3 -77 66 -133t140 -56q62 0 117 32.5t79 87.5h77q-29 -83 -104 -137t-162 -54q-120 0 -203.5 83t-83.5 203q0 119 83 202.5t202 83.5q133 0 220 -106q36 -44 49 -92t15 -114h-495zM537 314q-14 73 -74 123.5t-135 50.5q-78 0 -138.5 -49.5t-73.5 -124.5h421z "/>
<glyph glyph-name="f" horiz-adv-x="314" unicode="f" d="M101 480h-85v67h85q-4 90 49.5 140.5t145.5 51.5h14v-67h-14q-121 0 -121 -114v-11h136v-67h-136v-480h-74v480z"/>
<glyph glyph-name="g" horiz-adv-x="673" unicode="g" d="M610 78q0 -74 -11 -116t-53 -87q-39 -42 -97.5 -65.5t-118.5 -23.5q-92 0 -169 56.5t-99 144.5h72q69 -130 202 -130q55 0 104 24.5t75 70.5q11 20 16.5 42.5t6.5 37.5t1 46v30q-25 -58 -85.5 -89.5t-128.5 -31.5q-112 0 -197 80q-86 82 -86 205q0 52 17 100.5t35 68.5 q93 118 227 118q68 0 128 -30.5t90 -87.5v106h71v-469zM116 279q0 -93 59 -157t151 -64q91 0 150 62q28 29 45 71t17 82q0 92 -63.5 153.5t-155.5 61.5q-85 0 -144 -62t-59 -147z"/>
<glyph glyph-name="h" horiz-adv-x="610" unicode="h" d="M63 739h74v-271q23 43 68.5 67t97.5 24q114 0 187 -84q57 -65 57 -187v-288h-74v288q0 85 -32 131q-49 69 -141 69q-38 0 -75 -18t-60 -49q-28 -38 -28 -133v-288h-74v739z"/>
<glyph glyph-name="i" horiz-adv-x="200" unicode="i" d="M63 547h74v-547h-74v547zM63 739h74v-126h-74v126z"/>
<glyph glyph-name="j" horiz-adv-x="203" unicode="j" d="M140 50q0 -38 -0.5 -53t-4.5 -43.5t-15 -48.5t-30 -40q-54 -57 -135 -57v72q30 1 51.5 11.5t33 25t17.5 39t7.5 44.5t1.5 50v497h74v-497zM66 739h74v-126h-74v126z"/>
<glyph glyph-name="k" horiz-adv-x="502" unicode="k" d="M63 739h74v-519l251 327h95l-212 -274l226 -273h-95l-178 216l-87 -112v-104h-74v739z"/>
<glyph glyph-name="l" horiz-adv-x="200" unicode="l" d="M63 739h74v-739h-74v739z"/>
<glyph glyph-name="m" horiz-adv-x="938" unicode="m" d="M63 547h70v-71v0q19 41 58.5 62t87.5 21q108 0 177 -83q2 -3 7 -10t7 -11q2 4 6 11t5 10q28 39 75.5 61t97.5 22q87 0 170 -83q51 -51 51 -164v-312h-74v305q0 80 -27 118q-46 65 -124 65q-35 0 -68 -17t-53 -45q-23 -33 -23 -121v-305h-74v313q0 70 -26 109 q-46 66 -123 66t-120 -58q-26 -37 -26 -117v-313h-74v547z"/>
<glyph glyph-name="n" horiz-adv-x="610" unicode="n" d="M63 547h70v-79q65 91 170 91q118 0 194 -91q50 -63 50 -180v-288h-74v288q0 85 -32 130q-50 70 -141 70q-39 0 -75.5 -18t-58.5 -49q-13 -17 -19.5 -39.5t-8 -40.5t-1.5 -44v-9v-288h-74v547z"/>
<glyph glyph-name="o" horiz-adv-x="655" unicode="o" d="M613 277q0 -118 -83 -204t-201 -86q-117 0 -202 83t-85 200q0 120 83.5 204.5t203.5 84.5q114 0 199 -84t85 -198zM116 270q0 -88 62.5 -150t150.5 -62q90 0 150 64t60 155q0 90 -64 151q-63 60 -146 60q-90 0 -151.5 -64t-61.5 -154z"/>
<glyph glyph-name="p" horiz-adv-x="682" unicode="p" d="M133 547v-94q31 50 92.5 78t125.5 28q125 0 224 -106q26 -24 45.5 -74.5t19.5 -107.5q0 -120 -87.5 -202t-208.5 -82q-64 0 -122.5 30.5t-84.5 84.5v-294h-74v739h70zM566 272q0 89 -63 152.5t-152 63.5q-91 0 -155 -60t-64 -150q0 -95 58 -153q64 -67 156 -67t156 61 t64 153z"/>
<glyph glyph-name="q" horiz-adv-x="682" unicode="q" d="M619 -192h-74v294q-26 -54 -84.5 -84.5t-122.5 -30.5q-121 0 -208.5 82t-87.5 202q0 56 19.5 106.5t44.5 75.5q91 106 225 106q64 0 125.5 -28t92.5 -78v94h70v-739zM493 125q57 58 57 153q0 90 -64 150t-155 60q-89 0 -152 -63.5t-63 -152.5q0 -92 64 -153t156 -61 q93 0 157 67z"/>
<glyph glyph-name="r" horiz-adv-x="301" unicode="r" d="M63 547h70v-79q39 87 159 91v-73q-59 -4 -99 -38q-36 -30 -46 -60t-10 -82v-306h-74v547z"/>
<glyph glyph-name="s" horiz-adv-x="388" unicode="s" d="M92 161q-2 -42 27.5 -72.5t71.5 -30.5q40 0 68 25.5t28 65.5q0 45 -28.5 68t-77.5 37q-73 23 -99 48q-44 39 -44 104q0 66 46 109.5t112 43.5q61 0 106 -44t45 -104h-74q0 35 -24 56t-61 21q-32 0 -54 -22t-22 -54q0 -21 7.5 -36.5t23.5 -26t29 -16t36 -12.5 q35 -11 59 -22.5t47.5 -29.5t35 -45t11.5 -63q0 -77 -50 -125.5t-127 -48.5q-70 0 -120 52t-46 122h74z"/>
<glyph glyph-name="t" horiz-adv-x="339" unicode="t" d="M126 480h-114v67h114v192h74v-192h127v-67h-127v-480h-74v480z"/>
<glyph glyph-name="u" horiz-adv-x="608" unicode="u" d="M545 0h-70v85q-50 -98 -181 -98q-109 0 -192 98q-39 41 -39 173v289h74v-289q0 -81 24 -121q46 -79 143 -79q84 0 134 67q33 46 33 133v289h74v-547z"/>
<glyph glyph-name="v" unicode="v" d="M8 547h80l189 -453l189 453h80l-231 -547h-77z"/>
<glyph glyph-name="w" horiz-adv-x="831" unicode="w" d="M7 547h78l172 -458l127 391h61l126 -391l175 458h78l-208 -547h-85l-117 363l-115 -363h-85z"/>
<glyph glyph-name="x" horiz-adv-x="480" unicode="x" d="M195 278l-187 269h87l145 -211l145 211h87l-188 -269l188 -278h-87l-145 219l-145 -219h-87z"/>
<glyph glyph-name="y" horiz-adv-x="536" unicode="y" d="M527 547l-316 -739h-78l86 209l-210 530h79l175 -436l185 436h79z"/>
<glyph glyph-name="z" horiz-adv-x="425" unicode="z" d="M10 65l296 415h-286v67h376v-67l-294 -413h313v-67h-405v65z"/>
<glyph glyph-name="braceleft" horiz-adv-x="351" unicode="{" d="M119 588q0 87 32 120.5t120 30.5q-44 -13 -62 -40.5t-18 -74.5v-178q0 -61 -18 -94t-72 -46q53 -11 71.5 -40.5t18.5 -86.5v-191q0 -49 17 -75t63 -40q-28 0 -42.5 1t-35 7t-36.5 18q-38 28 -38 108v190q0 19 -0.5 28.5t-5.5 23t-15 25.5q-24 27 -61 32q32 9 53 25 q14 11 20.5 27t7.5 26.5t1 34.5v169z"/>
<glyph glyph-name="bar" horiz-adv-x="672" unicode="|" d="M304 739h64v-739h-64v739z"/>
<glyph glyph-name="braceright" horiz-adv-x="351" unicode="}" d="M115 624q0 46 -17.5 74t-59.5 41q86 3 117.5 -31t31.5 -120v-169q0 -23 1 -34.5t8 -27t21 -26.5q21 -17 52 -25q-36 -5 -60 -32q-15 -18 -18.5 -33.5t-3.5 -43.5v-190q0 -81 -38 -108q-24 -17 -47.5 -21.5t-63.5 -4.5q44 14 60.5 40t16.5 75v191q0 57 18.5 86.5 t71.5 40.5q-54 13 -72 46t-18 94v178z"/>
<glyph glyph-name="asciitilde" horiz-adv-x="606" unicode="~" d="M555 344q-62 -111 -142 -111q-11 0 -24.5 3t-30.5 9t-27.5 10t-30 12.5t-22.5 9.5q-59 25 -84 25q-19 0 -34 -7t-29 -24.5t-19.5 -26t-19.5 -32.5l-41 48q30 54 62.5 86t80.5 32q38 0 117 -35t103 -35q55 0 99 83z"/>
<glyph glyph-name="uni00A0" horiz-adv-x="277" unicode=" "/>
<glyph glyph-name="sterling" unicode="£" d="M58 67h139q41 37 43 113q-1 53 -25 89.5t-72 76.5h-125v67h73q-21 51 -21 92q0 87 60 160q71 84 185 86q90 -1 160 -62t79 -149h-70q-11 58 -59.5 99t-108.5 41q-73 0 -123 -50t-49 -123q-2 -56 28 -94h284v-67h-214q72 -76 72 -163q0 -56 -30 -116h25h17h18t16.5 0.5 t17.5 1t16 2t17.5 3.5t15.5 4.5t16.5 6.5t14.5 9q63 45 60 125q0 30 -6 48h72q8 -30 8 -57q0 -101 -80 -164q-37 -29 -79 -37.5t-101 -8.5h-274v67z"/>
<glyph glyph-name="currency" unicode="¤" d="M74 152q-48 71 -48 148q0 83 48 151l-43 43l52 53l44 -43q65 49 154 49q75 0 146 -49l44 43l52 -53l-43 -43q48 -69 48 -156q0 -72 -48 -143l43 -42l-52 -53l-44 43q-68 -50 -155 -50q-74 0 -145 50l-44 -43l-52 53zM281 481q-78 2 -131 -50.5t-52 -130.5 q-1 -72 51.5 -124.5t125.5 -53.5q76 1 128.5 53t52.5 128q0 72 -51.5 125.5t-123.5 52.5z"/>
<glyph glyph-name="section" horiz-adv-x="615" unicode="§" d="M412 606q-1 35 -35.5 55.5t-70.5 18.5q-44 2 -72 -23.5t-28 -68.5q0 -54 70 -88l126 -63q28 -14 46.5 -25t39 -28.5t31 -40.5t10.5 -51q0 -41 -23 -82.5t-58 -62.5q52 -41 52 -108q0 -80 -55 -129t-136 -49q-86 0 -144 59t-60 145h70q2 -57 40 -96.5t94 -36.5 q50 -3 85 26t35 79q0 20 -8.5 36.5t-28 30.5t-30 20t-36.5 19l-162 84q-77 39 -77 111q0 92 88 153q-18 17 -29 45t-11 54q0 69 49.5 115t119.5 46q66 0 121.5 -40.5t56.5 -104.5h-70zM400 182q24 13 41 41t17 55q0 25 -11.5 43.5t-25 27.5t-39.5 22l-164 83 q-26 -15 -43 -44t-17 -60q0 -48 65 -80z"/>
<glyph glyph-name="copyright" horiz-adv-x="747" unicode="©" d="M-9 370q0 158 112 269.5t271 111.5q158 0 269.5 -111.5t111.5 -269.5q0 -159 -111.5 -271t-269.5 -112q-159 0 -271 112t-112 271zM709 370q0 139 -98 237t-237 98t-237.5 -98t-98.5 -237q0 -140 98 -238.5t238 -98.5q139 0 237 98.5t98 238.5zM568 300 q-7 -67 -58 -107.5t-119 -40.5q-95 0 -153.5 63t-58.5 158q0 96 56.5 157.5t152.5 61.5q70 0 119.5 -38.5t60.5 -105.5h-55q-8 44 -43 71.5t-81 27.5q-73 0 -113.5 -49t-40.5 -124q0 -73 42.5 -124.5t113.5 -51.5q46 0 81 28t41 74h55z"/>
<glyph glyph-name="guillemotleft" horiz-adv-x="425" unicode="«" d="M40 301l113 199l58 -31l-94 -168l94 -168l-58 -32zM213 301l113 199l59 -31l-94 -168l94 -168l-59 -32z"/>
<glyph glyph-name="logicalnot" horiz-adv-x="606" unicode="¬" d="M479 360h-428v76h504v-270h-76v194z"/>
<glyph glyph-name="registered" horiz-adv-x="747" unicode="®" d="M-9 370q0 158 112 269.5t271 111.5q158 0 269.5 -111.5t111.5 -269.5q0 -159 -111.5 -271t-269.5 -112q-159 0 -271 112t-112 271zM709 370q0 139 -98 237t-237 98t-237.5 -98t-98.5 -237q0 -140 98 -238.5t238 -98.5q139 0 237 98.5t98 238.5zM564 156h-62l-122 197h-96 v-197h-52v427h186q69 0 104 -21q48 -27 48 -92q0 -113 -135 -117zM364 394h21h23t22 0.5t23 3t20 5.5t18 9t13 14t10 19.5t3 25.5q0 44 -30.5 59t-80.5 15h-122v-151h80z"/>
<glyph glyph-name="degree" horiz-adv-x="400" unicode="°" d="M200 439q-62 0 -106 44t-44 106q-1 61 43.5 105.5t106.5 44.5t106 -44.5t44 -105.5q0 -62 -44 -106t-106 -44zM199 699q-45 0 -77.5 -32.5t-31.5 -77.5q0 -46 32 -78t78 -32q45 0 77.5 32t32.5 78q0 45 -32.5 77.5t-78.5 32.5z"/>
<glyph glyph-name="plusminus" horiz-adv-x="606" unicode="±" d="M265 554h76v-162h214v-76h-214v-164h-76v164h-214v76h214v162zM51 76h504v-76h-504v76z"/>
<glyph glyph-name="paragraph" horiz-adv-x="564" unicode="¶" d="M229 355q-77 -1 -134.5 56t-57.5 134q0 90 64 146q33 30 68 38.5t91 9.5h231v-866h-74v799h-114v-799h-74v482z"/>
<glyph glyph-name="guillemotright" horiz-adv-x="425" unicode="»" d="M213 133l94 168l-94 168l59 31l113 -199l-113 -200zM40 133l94 168l-94 168l58 31l113 -199l-113 -200z"/>
<glyph glyph-name="divide" horiz-adv-x="606" unicode="÷" d="M51 339h504v-76h-504v76zM265 553h76v-76h-76v76zM265 125h76v-76h-76v76z"/>
<glyph glyph-name="afii10023" horiz-adv-x="536" unicode="Ё" d="M232 931v-126h-74v126h74zM379 931v-126h-74v126h74zM76 739h404v-67h-330v-266h319v-67h-319v-272h330v-67h-404v739z"/>
<glyph glyph-name="afii10051" horiz-adv-x="680" unicode="Ђ" d="M414 399q-79 0 -164 -49v-350h-74v672h-169v67h412v-67h-169v-254q79 51 165 51q95 0 166 -66.5t71 -170.5q0 -102 -71.5 -173.5t-173.5 -71.5q-39 0 -78 13l1 81q33 -21 75 -21q72 0 121.5 50t49.5 121q0 68 -45.5 118t-116.5 50z"/>
<glyph glyph-name="afii10052" horiz-adv-x="458" unicode="Ѓ" d="M76 739h375v-67h-301v-672h-74v739zM320 977l35 -58l-193 -114l-34 56z"/>
<glyph glyph-name="afii10053" horiz-adv-x="813" unicode="Є" d="M770 193q-48 -92 -141 -149t-197 -57q-163 0 -275.5 111t-112.5 274q0 157 112 268t270 111q120 0 213 -62q40 -25 77 -63.5t51 -76.5h-82q-40 61 -111 96t-147 35q-113 0 -201 -78t-105 -188h462v-67h-464q10 -121 101.5 -205t211.5 -84q74 0 143 37t113 98h82z"/>
<glyph glyph-name="afii10054" horiz-adv-x="498" unicode="Ѕ" d="M101 207q2 -62 44.5 -105.5t103.5 -43.5q64 0 108.5 41.5t44.5 104.5q0 64 -51 105q-34 28 -114 49q-93 24 -130 56q-62 53 -62 138q0 88 60.5 143.5t149.5 55.5q85 0 144.5 -58t58.5 -142h-77q-4 57 -41 93t-94 36q-53 0 -90 -38t-37 -91q0 -26 9 -46t20.5 -32t34.5 -23 t38 -16t44 -13q5 -2 21.5 -6t22.5 -6t20 -6.5t21.5 -8t18.5 -9t20 -12.5t18 -15q69 -60 69 -155q0 -90 -67 -153t-158 -63q-96 0 -163 62.5t-66 157.5h79z"/>
<glyph glyph-name="afii10055" horiz-adv-x="226" unicode="І" d="M76 739h74v-739h-74v739z"/>
<glyph glyph-name="afii10056" horiz-adv-x="226" unicode="Ї" d="M77 931v-126h-74v126h74zM224 931v-126h-74v126h74zM76 739h74v-739h-74v739z"/>
<glyph glyph-name="afii10057" horiz-adv-x="482" unicode="Ј" d="M406 208q0 -5 -1.5 -26.5t-2 -27.5t-3 -22.5t-6.5 -25.5t-11 -21.5t-16 -24.5q-58 -73 -158 -73q-81 0 -138 54t-59 134h73q4 -52 41 -84.5t90 -32.5q37 0 66 20t42 54q9 26 9 98v509h74v-531z"/>
<glyph glyph-name="afii10058" horiz-adv-x="1023" unicode="Љ" d="M708 374h-127v-307h95q7 0 30 -0.5t33.5 0t28.5 2t33 5t29 9.5q44 18 68 54t24 84q0 37 -17 70.5t-48 52.5q-48 30 -149 30zM507 672h-232l-187 -672h-78l210 739h361v-298h139q127 0 192 -48q84 -61 84 -171q0 -121 -97 -182q-28 -18 -65 -27t-62 -10.5t-71 -2.5h-194 v672z"/>
<glyph glyph-name="afii10059" horiz-adv-x="1049" unicode="Њ" d="M734 374h-127v-307h95q7 0 30 -0.5t33.5 0t28.5 2t33 5t29 9.5q44 18 68 54t24 84q0 37 -17 70.5t-48 52.5q-48 30 -149 30zM533 374h-383v-374h-74v739h74v-298h383v298h74v-298h139q127 0 192 -48q84 -61 84 -171q0 -121 -97 -182q-28 -18 -65 -27t-62 -10.5t-71 -2.5 h-194v374z"/>
<glyph glyph-name="afii10060" horiz-adv-x="680" unicode="Ћ" d="M250 350v-350h-74v672h-169v67h412v-67h-169v-254q95 51 195 51q80 0 137 -51t57 -133v-285h-74v275q0 57 -38.5 90.5t-96.5 33.5q-95 0 -180 -49z"/>
<glyph glyph-name="afii10061" horiz-adv-x="591" unicode="Ќ" d="M76 739h74v-425l341 425h94l-292 -360l292 -379h-92l-247 320l-96 -118v-202h-74v739zM375 977l35 -58l-193 -114l-34 56z"/>
<glyph glyph-name="afii10062" horiz-adv-x="680" unicode="Ў" d="M324 105l-322 634h81l277 -547l230 547h82l-320 -739h-75zM250 898q11 -23 36 -34.5t53 -11.5t53 11.5t36 34.5h63q-13 -51 -55 -77t-97 -26t-97 26t-55 77h63z"/>
<glyph glyph-name="afii10145" horiz-adv-x="683" unicode="Џ" d="M304 0h-228v739h74v-672h383v672h74v-739h-229v-86h-74v86z"/>
<glyph glyph-name="afii10017" horiz-adv-x="740" unicode="А" d="M330 739h82l317 -739h-80l-107 248h-344l-107 -248h-80zM513 315l-142 339l-144 -339h286z"/>
<glyph glyph-name="afii10018" horiz-adv-x="592" unicode="Б" d="M490 739v-67h-340v-231h139q127 0 192 -48q84 -61 84 -171q0 -121 -97 -182q-28 -18 -65 -27t-62 -10.5t-71 -2.5h-194v739h414zM277 374h-127v-307h95q7 0 30 -0.5t33.5 0t28.5 2t33 5t29 9.5q44 18 68 54t24 84q0 37 -17 70.5t-48 52.5q-48 30 -149 30z"/>
<glyph glyph-name="afii10019" horiz-adv-x="574" unicode="В" d="M76 739h173q111 0 168 -37q40 -26 63.5 -68.5t23.5 -90.5q0 -90 -82 -148q58 -24 90 -73t32 -113q0 -51 -24.5 -96.5t-66.5 -72.5q-30 -19 -69 -28t-59 -10t-75 -2h-174v739zM241 67q109 -2 156 22q32 17 52.5 50.5t19.5 68.5q1 47 -24 82.5t-68 50.5t-149 15h-78v-289 h91zM230 423q100 0 140 22q27 14 43.5 43t16.5 60q0 30 -16.5 58t-42.5 44q-43 26 -135 22h-86v-249h80z"/>
<glyph glyph-name="afii10020" horiz-adv-x="458" unicode="Г" d="M76 739h375v-67h-301v-672h-74v739z"/>
<glyph glyph-name="afii10021" horiz-adv-x="657" unicode="Д" d="M507 67v605h-226l-135 -605h361zM100 0v-86h-74v153h43l157 672h355v-672h50v-153h-74v86h-457z"/>
<glyph glyph-name="afii10022" horiz-adv-x="536" unicode="Е" d="M76 739h404v-67h-330v-266h319v-67h-319v-272h330v-67h-404v739z"/>
<glyph glyph-name="afii10024" horiz-adv-x="816" unicode="Ж" d="M371 353l-273 -353h-92l292 379l-292 360h94q271 -337 271 -338v338h74v-337l271 337h94l-292 -360l292 -379h-92l-273 353v0v0v0v0v-1v0v0v-1v0v-1v0v-1v0v-1v0v-1v-1v0v-1v-1v-1v-1v-1v-1v-1v-1v-1v-1v-1v-1v-1v-1v-1v-1v-1v-1v-1v-1v-1v-1v-1v-1v-1v-1v-1v-1v-1v-1v-1 v-1v-1v-1v-1v-1v-1v-1v-1v-1v-1v-1v-1v-1v-1v-1v-1v-1v-1v-1v-1v-1v-1v-1v-1v-1v-1v-1v-2v-1v-1v-1v-1v-1v-1v-1v-1v-1v-2v-1v-1v-1v-1v-1v-1v-2v-1v-1v-1v-1v-2v-1v-1v-1v-1v-2v-1v-1v-1v-2v-1v-1v-1v-2v-1v-1v-1v-2v-1v-1v-2v-1v-1v-1v-2v-1v-1v-2v-1v-1v-2v-1v-2v-1v-1 v-2v-1v-1v-2v-1v-2v-1v-1v-2v-1v-2v-1v-1v-2v-1v-2v-1v-2v-1v-2v-1v-2v-1v-1v-2v-1v-2v-1v-2v-1v-2v-1v-2v-1v-2v-2v-1v-2v-1v-2v-1v-2v-1v-2v-1v-2v-2v-1v-2v-1v-2v-2v-1v-2v-1v-2v-2v-1v-2v-1v-2v-2v-1v-2v-2v-1v-2v-1v-2v-2v-1v-2v-2v-1v-2v-2v-2v-1v-2v-2v-1v-2v-2v-1 v-2v-2v-2v-1v-2v-2v-2v-1v-2v-2v-2v-1v-2v-2v-2v-1v-2v-2v-2v-2v-1v-2v-2v-2v-2v-1v-2v-2v-2v-2v-2v-1v-2v-2v-2v-2v-2v-1v-2v-2v-2v-2v-2v-2v-8h-74v353z"/>
<glyph glyph-name="afii10025" horiz-adv-x="538" unicode="З" d="M172 354v68h89q60 0 101 33.5t41 95.5q0 53 -37 91t-90 38q-57 0 -94 -36t-41 -93h-77q-1 84 58.5 142t144.5 58q89 0 149.5 -55.5t60.5 -143.5q0 -85 -62 -138q-12 -11 -36 -24q28 -13 48 -32q69 -60 69 -155q0 -90 -67 -153t-158 -63q-96 0 -163 62.5t-66 157.5h79 q2 -62 44.5 -105.5t103.5 -43.5q64 0 108.5 41.5t44.5 104.5q0 62 -44.5 106t-106.5 44h-99z"/>
<glyph glyph-name="afii10026" horiz-adv-x="720" unicode="И" d="M644 739v-739h-74v650l-419 -650h-75v739h74v-613l393 613h101z"/>
<glyph glyph-name="afii10027" horiz-adv-x="720" unicode="Й" d="M644 739v-739h-74v650l-419 -650h-75v739h74v-613l393 613h101zM271 898q11 -23 36 -34.5t53 -11.5t53 11.5t36 34.5h63q-13 -51 -55 -77t-97 -26t-97 26t-55 77h63z"/>
<glyph glyph-name="afii10028" horiz-adv-x="591" unicode="К" d="M76 739h74v-425l341 425h94l-292 -360l292 -379h-92l-247 320l-96 -118v-202h-74v739z"/>
<glyph glyph-name="afii10029" horiz-adv-x="657" unicode="Л" d="M581 739v-739h-74v672h-226l-187 -672h-78l210 739h355z"/>
<glyph glyph-name="afii10030" horiz-adv-x="919" unicode="М" d="M76 739h114l270 -629l269 629h114v-739h-74v657l-278 -657h-63l-278 657v-657h-74v739z"/>
<glyph glyph-name="afii10031" horiz-adv-x="683" unicode="Н" d="M76 739h74v-325h383v325h74v-739h-74v347h-383v-347h-74v739z"/>
<glyph glyph-name="afii10032" horiz-adv-x="869" unicode="О" d="M825 371q0 -160 -115 -272t-276 -112q-157 0 -273.5 111t-116.5 268q0 160 114.5 272t275.5 112q158 0 274.5 -111t116.5 -268zM118 366q0 -127 95 -217.5t222 -90.5q131 0 223.5 91.5t92.5 221.5q0 127 -94.5 217.5t-221.5 90.5q-131 0 -224 -91.5t-93 -221.5z"/>
<glyph glyph-name="afii10033" horiz-adv-x="683" unicode="П" d="M76 739h531v-739h-74v672h-383v-672h-74v739z"/>
<glyph glyph-name="afii10034" horiz-adv-x="592" unicode="Р" d="M76 739h194q46 -1 71 -2.5t62 -10.5t65 -27q97 -61 97 -182q0 -109 -84 -171q-65 -48 -192 -48h-139v-298h-74v739zM277 365q101 0 149 30q31 19 48 52.5t17 70.5q0 48 -24 84t-68 54q-14 6 -29 9.5t-33 5t-28.5 2t-33.5 0t-30 -0.5h-95v-307h127z"/>
<glyph glyph-name="afii10035" horiz-adv-x="813" unicode="С" d="M685 549q-40 61 -111 96t-147 35q-125 0 -217 -93t-92 -215q0 -129 93.5 -221.5t220.5 -92.5q74 0 143 37t113 98h82q-48 -92 -141 -149t-197 -57q-163 0 -275.5 111t-112.5 274q0 157 112 268t270 111q120 0 213 -62q40 -25 77 -63.5t51 -76.5h-82z"/>
<glyph glyph-name="afii10036" horiz-adv-x="426" unicode="Т" d="M176 672h-169v67h412v-67h-169v-672h-74v672z"/>
<glyph glyph-name="afii10037" horiz-adv-x="680" unicode="У" d="M324 105l-322 634h81l277 -547l230 547h82l-320 -739h-75z"/>
<glyph glyph-name="afii10038" horiz-adv-x="944" unicode="Ф" d="M510 -13h-76q-157 0 -273.5 111t-116.5 268q0 160 114.5 272t275.5 112h76q161 0 275.5 -112t114.5 -272q0 -157 -116.5 -268t-273.5 -111zM509 679v-621q127 0 222 90.5t95 217.5q0 130 -93 221.5t-224 91.5zM435 679q-131 0 -224 -91.5t-93 -221.5q0 -127 95 -217.5 t222 -90.5v621z"/>
<glyph glyph-name="afii10039" horiz-adv-x="609" unicode="Х" d="M259 378l-236 361h86l196 -296l195 296h86l-239 -361l254 -378h-87l-209 316l-210 -316h-87z"/>
<glyph glyph-name="afii10040" horiz-adv-x="683" unicode="Ц" d="M583 0h-507v739h74v-672h383v672h74v-672h50v-153h-74v86z"/>
<glyph glyph-name="afii10041" horiz-adv-x="627" unicode="Ч" d="M49 739h74v-275q0 -57 38.5 -90.5t96.5 -33.5q121 0 220 76v323h74v-739h-74v345q-114 -75 -235 -75q-80 0 -137 51t-57 133v285z"/>
<glyph glyph-name="afii10042" horiz-adv-x="922" unicode="Ш" d="M76 0v739h74v-672h274v672h74v-672h274v672h74v-739h-770z"/>
<glyph glyph-name="afii10043" horiz-adv-x="922" unicode="Щ" d="M822 0v0v0v0v0v0h-1v0v0v0v0h-1v0v0h-1v0h-1v0v0h-1v0h-1v0h-1v0h-1v0h-1v0h-1v0h-1v0h-1h-1v0h-1h-1h-1v0h-1h-1h-1h-1h-1h-1h-1h-1h-1h-1h-1h-1h-1h-1h-1h-1h-1h-1h-1h-1h-1h-1h-1h-1h-1h-1h-1h-1h-1h-1h-1h-1h-1h-1h-1h-1h-1h-1h-1h-1h-1h-1h-1h-1h-1h-1h-1h-1h-1h-1 h-1h-1h-1h-1h-1h-1h-1h-1h-1h-1h-1h-1h-1h-1h-1h-1h-1h-1h-1h-1h-1h-1h-1h-1h-1h-1h-1h-1h-1h-1h-1h-1h-1h-1h-1h-1h-1h-1h-1h-1h-1h-1h-1h-1h-1h-1h-1h-1h-1h-1h-1h-1h-1h-1h-1h-1h-1h-1h-1h-1h-1h-1h-1h-1h-1h-1h-2h-1h-1h-1h-1h-1h-1h-1h-1h-1h-1h-1h-1h-1h-2h-1h-1h-1 h-1h-1h-1h-1h-1h-1h-2h-1h-1h-1h-1h-1h-1h-1h-2h-1h-1h-1h-1h-1h-2h-1h-1h-1h-1h-1h-2h-1h-1h-1h-1h-1h-2h-1h-1h-1h-1h-2h-1h-1h-1h-1h-2h-1h-1h-1h-2h-1h-1h-1h-2h-1h-1h-1h-1h-2h-1h-1h-2h-1h-1h-1h-2h-1h-1h-1h-2h-1h-1h-1h-2h-1h-1h-2h-1h-1h-2h-1h-1h-1h-2h-1h-1h-2 h-1h-1h-2h-1h-1h-2h-1h-1h-2h-1h-1h-2h-1h-1h-2h-1h-1h-2h-1h-2h-1h-1h-2h-1h-1h-2h-1h-1h-2h-1h-2h-1h-1h-2h-1h-2h-1h-1h-2h-1h-2h-1h-1h-2h-1h-2h-1h-2h-1h-1h-2h-1h-2h-1h-2h-1h-1h-2h-1h-2h-1h-2h-1h-2h-1h-1h-2h-1h-2h-1h-2h-1h-2h-1h-2h-1h-2h-1h-2h-1h-2h-1h-2h-1 h-2h-1h-2h-1h-2h-1h-2h-1h-2h-1h-2h-1h-2h-1h-2h-1h-2h-1h-2h-1h-2h-2h-1h-2h-1h-2h-1h-2h-1h-2h-2h-1h-2h-1h-2h-1h-2h-1h-2h-2h-1h-2h-1h-2h-2h-1h-2h-1h-2h-1h-2h-2h-1h-2h-1h-2h-2h-1h-2h-2h-1h-2h-1h-2h-2h-1h-2h-1h-2h-2h-1h-2h-2h-1h-2h-2h-1h-2h-2h-1h-2h-1h-2h-2 h-1h-2h-2h-1h-2h-2h-1h-2h-2h-1h-2h-2h-1h-2h-2h-2h-1h-2h-2h-1h-2h-2h-1h-2h-2h-2h-1h-2h-2h-1h-2h-2h-2h-1h-2h-2h-1h-2h-2h-2h-1h-2h-2h-2h-1h-2h-2h-2h-1h-2h-2h-2h-1h-2h-2h-2h-1h-2h-2h-2h-1h-2h-2h-2h-2h-1h-2h-2h-2h-1h-2h-2h-2h-2h-1h-2h-2h-2h-2h-1h-2h-2h-2h-2 h-1h-2h-2h-2h-2h-2h-1h-2h-2h-2h-2h-2h-1h-2h-2h-2h-2h-2h-2h-1h-2h-2h-2h-2h-2h-2h-1h-2h-2h-2h-2h-2h-2h-2h-1h-2h-2h-2h-2h-2h-2h-2h-2h-1h-2h-2h-10v739h74v-672h274v672h74v-672h274v672h74v-672h50v-153h-74v86z"/>
<glyph glyph-name="afii10044" horiz-adv-x="655" unicode="Ъ" d="M139 672h-132v67h206v-298h139q127 0 192 -48q84 -61 84 -171q0 -121 -97 -182q-28 -18 -65 -27t-62 -10.5t-71 -2.5h-194v672zM340 374h-127v-307h95q7 0 30 -0.5t33.5 0t28.5 2t33 5t29 9.5q44 18 68 54t24 84q0 37 -17 70.5t-48 52.5q-48 30 -149 30z"/>
<glyph glyph-name="afii10045" horiz-adv-x="788" unicode="Ы" d="M76 0v739h74v-298h139q127 0 192 -48q84 -61 84 -171q0 -121 -97 -182q-28 -18 -65 -27t-62 -10.5t-71 -2.5h-194zM638 739h74v-739h-74v739zM277 374h-127v-307h95q7 0 30 -0.5t33.5 0t28.5 2t33 5t29 9.5q44 18 68 54t24 84q0 37 -17 70.5t-48 52.5q-48 30 -149 30z "/>
<glyph glyph-name="afii10046" horiz-adv-x="592" unicode="Ь" d="M76 0v739h74v-298h139q127 0 192 -48q84 -61 84 -171q0 -121 -97 -182q-28 -18 -65 -27t-62 -10.5t-71 -2.5h-194zM277 374h-127v-307h95q7 0 30 -0.5t33.5 0t28.5 2t33 5t29 9.5q44 18 68 54t24 84q0 37 -17 70.5t-48 52.5q-48 30 -149 30z"/>
<glyph glyph-name="afii10047" horiz-adv-x="813" unicode="Э" d="M692 414q-17 110 -105 188t-201 78q-76 0 -147 -35t-111 -96h-82q14 38 51 76.5t77 63.5q93 62 213 62q158 0 270 -111t112 -268q0 -163 -112.5 -274t-275.5 -111q-104 0 -197 57t-141 149h82q44 -61 113 -98t143 -37q120 0 211.5 84t101.5 205h-464v67h462z"/>
<glyph glyph-name="afii10048" horiz-adv-x="1053" unicode="Ю" d="M228 347h-78v-347h-74v739h74v-325h81q18 144 128.5 240t258.5 96q158 0 274.5 -111t116.5 -268q0 -160 -115 -272t-276 -112q-152 0 -267 104.5t-123 255.5zM619 680q-131 -1 -224 -93t-93 -221q0 -127 95 -217.5t222 -90.5q131 0 223.5 91.5t92.5 221.5 q0 127 -94 217.5t-222 90.5v1z"/>
<glyph glyph-name="afii10049" horiz-adv-x="607" unicode="Я" d="M531 739v-739h-74v672h-117q-39 0 -60 -1t-52.5 -9.5t-54.5 -24.5q-31 -22 -50 -58t-19 -74q0 -50 25 -89.5t71 -60.5q8 -4 16 -6.5t18.5 -4.5t17 -3.5t19 -2.5t17.5 -1.5t19.5 -1t17.5 -0.5h19h17h22l-251 -335h-92l208 276q-90 2 -154 67t-64 155q0 65 29.5 119 t85.5 86q29 16 68.5 24.5t67.5 10t74 1.5h176z"/>
<glyph glyph-name="afii10065" horiz-adv-x="683" unicode="а" d="M620 0h-71v103q-31 -56 -88 -86t-124 -30q-139 0 -241 116q-19 21 -36.5 69.5t-17.5 104.5q0 50 19.5 100t37.5 66q108 116 236 116q68 0 126 -30t88 -86v104h71v-547zM116 271q0 -89 66 -151t155 -62q85 0 148.5 63t63.5 149q0 91 -61.5 154.5t-152.5 63.5 q-90 0 -154.5 -63.5t-64.5 -153.5z"/>
<glyph glyph-name="afii10066" horiz-adv-x="655" unicode="б" d="M156 656q44 44 110 68t128.5 40t90.5 37q34 26 34 45l52 -37q0 -27 -38 -61q-31 -28 -98.5 -48.5t-133.5 -42t-96 -51.5q-63 -63 -79 -144q31 42 88 69.5t128 27.5q114 0 194 -83t80 -199q0 -118 -83 -204t-201 -86t-202.5 83t-84.5 200q0 276 111 386zM119 270 q0 -88 62.5 -150t150.5 -62q90 0 150 64t60 155q0 88 -61 149.5t-149 61.5q-90 0 -151.5 -64t-61.5 -154z"/>
<glyph glyph-name="afii10067" horiz-adv-x="456" unicode="в" d="M63 547h156q76 0 122.5 -38.5t46.5 -105.5q0 -66 -60 -109q40 -16 64.5 -52.5t24.5 -79.5q0 -75 -54 -118.5t-141 -43.5h-159v547zM343 161q0 94 -121 94h-86v-188h86q121 0 121 94zM316 403q0 37 -26.5 57t-71.5 20h-82v-159h79q101 0 101 82z"/>
<glyph glyph-name="afii10068" horiz-adv-x="432" unicode="г" d="M64 547h341v-66h-268v-481h-73v547z"/>
<glyph glyph-name="afii10069" horiz-adv-x="492" unicode="д" d="M354 479h-143l-80 -412h223v412zM92 0v-86h-74v153h37l101 480h272v-480h46v-153h-74v86h-308z"/>
<glyph glyph-name="afii10070" horiz-adv-x="650" unicode="е" d="M116 247q3 -77 66 -133t140 -56q62 0 117 32.5t79 87.5h77q-29 -83 -104 -137t-162 -54q-120 0 -203.5 83t-83.5 203q0 119 83 202.5t202 83.5q133 0 220 -106q36 -44 49 -92t15 -114h-495zM537 314q-14 73 -74 123.5t-135 50.5q-78 0 -138.5 -49.5t-73.5 -124.5h421z "/>
<glyph glyph-name="afii10072" horiz-adv-x="688" unicode="ж" d="M381 294l193 253h95l-212 -274l226 -273h-95l-207 249v-249h-74v249l-207 -249h-95l226 273l-212 274h95q193 -252 193 -253v253h74v-253z"/>
<glyph glyph-name="afii10073" horiz-adv-x="400" unicode="з" d="M122 252v69h64q40 1 65.5 21.5t25.5 60.5q0 34 -23 58t-57 24q-37 0 -60.5 -23t-26.5 -60l-1 -9h-74v10q0 64 45.5 108.5t109.5 44.5q67 0 113.5 -43t46.5 -109q0 -71 -72 -116q37 -18 61 -55.5t24 -77.5q0 -69 -50.5 -116.5t-119.5 -47.5q-73 0 -123.5 47.5t-49.5 119.5 v10h76v-10q1 -40 28.5 -68.5t67.5 -28.5q41 0 70 27t29 67t-28.5 68.5t-69.5 28.5h-71z"/>
<glyph glyph-name="afii10074" horiz-adv-x="610" unicode="и" d="M546 547v-547h-74v464l-333 -464h-75v547h74v-437l310 437h98z"/>
<glyph glyph-name="afii10075" horiz-adv-x="610" unicode="й" d="M546 547v-547h-74v464l-333 -464h-75v547h74v-437l310 437h98zM216 706q11 -23 36 -34.5t53 -11.5t53 11.5t36 34.5h63q-13 -51 -55 -77t-97 -26t-97 26t-55 77h63z"/>
<glyph glyph-name="afii10076" horiz-adv-x="502" unicode="к" d="M63 547h74v-327l251 327h95l-212 -274l226 -273h-95l-178 216l-87 -112v-104h-74v547z"/>
<glyph glyph-name="afii10077" horiz-adv-x="492" unicode="л" d="M428 547v-547h-74v479h-143l-126 -479h-78l149 547h272z"/>
<glyph glyph-name="afii10078" horiz-adv-x="818" unicode="м" d="M64 547h108q237 -453 237 -454l237 454h108v-547h-74v466l-240 -466h-62q-241 466 -241 467v-467h-73v547z"/>
<glyph glyph-name="afii10079" horiz-adv-x="588" unicode="н" d="M63 547h74v-232h313v232h74v-547h-74v248h-313v-248h-74v547z"/>
<glyph glyph-name="afii10080" horiz-adv-x="655" unicode="о" d="M613 277q0 -118 -83 -204t-201 -86q-117 0 -202 83t-85 200q0 120 83.5 204.5t203.5 84.5q114 0 199 -84t85 -198zM116 270q0 -88 62.5 -150t150.5 -62q90 0 150 64t60 155q0 90 -64 151q-63 60 -146 60q-90 0 -151.5 -64t-61.5 -154z"/>
<glyph glyph-name="afii10081" horiz-adv-x="588" unicode="п" d="M64 547h460v-547h-74v480h-313v-480h-73v547z"/>
<glyph glyph-name="afii10082" horiz-adv-x="682" unicode="р" d="M133 547v-94q31 50 92.5 78t125.5 28q125 0 224 -106q26 -24 45.5 -74.5t19.5 -107.5q0 -120 -87.5 -202t-208.5 -82q-64 0 -122.5 30.5t-84.5 84.5v-294h-74v739h70zM566 272q0 89 -63 152.5t-152 63.5q-91 0 -155 -60t-64 -150q0 -95 58 -153q64 -67 156 -67t156 61 t64 153z"/>
<glyph glyph-name="afii10083" horiz-adv-x="647" unicode="с" d="M607 160q-37 -81 -107.5 -127t-158.5 -46q-124 0 -211.5 82t-87.5 205q0 120 88 202.5t208 82.5q89 0 164 -48.5t106 -129.5h-83q-29 49 -79.5 78t-106.5 29q-92 0 -157.5 -61t-65.5 -152t63 -154t154 -63q119 0 192 102h82z"/>
<glyph glyph-name="afii10084" horiz-adv-x="379" unicode="т" d="M2 480v67h375v-67h-150v-480h-73v480h-152z"/>
<glyph glyph-name="afii10085" horiz-adv-x="536" unicode="у" d="M527 547l-316 -739h-78l86 209l-210 530h79l175 -436l185 436h79z"/>
<glyph glyph-name="afii10086" horiz-adv-x="732" unicode="ф" d="M690 270q0 -117 -85 -200t-202 -83v-179h-74v179q-117 0 -202 83t-85 200q0 120 83.5 204.5t203.5 84.5v180h74v-180q120 0 203.5 -84.5t83.5 -204.5zM616 270q0 90 -61.5 154t-151.5 64v-430q88 0 150.5 62t62.5 150zM329 58v430q-90 0 -151.5 -64t-61.5 -154 q0 -88 62.5 -150t150.5 -62z"/>
<glyph glyph-name="afii10087" horiz-adv-x="480" unicode="х" d="M195 278l-187 269h87l145 -211l145 211h87l-188 -269l188 -278h-87l-145 219l-145 -219h-87z"/>
<glyph glyph-name="afii10088" horiz-adv-x="588" unicode="ц" d="M495 0h-431v547h73v-480h313v480h74v-480h45v-153h-74v86z"/>
<glyph glyph-name="afii10089" horiz-adv-x="492" unicode="ч" d="M45 547h74v-203q0 -33 24.5 -54.5t63.5 -21.5q77 0 144 51v228h73v-547h-73v249q-68 -47 -162 -47q-55 0 -99.5 38.5t-44.5 95.5v211z"/>
<glyph glyph-name="afii10090" horiz-adv-x="821" unicode="ш" d="M64 0v547h73v-480h236v480h74v-480h236v480h74v-547h-693z"/>
<glyph glyph-name="afii10091" horiz-adv-x="821" unicode="щ" d="M728 0h-664v547h73v-480h236v480h74v-480h236v480h74v-480h45v-153h-74v86z"/>
<glyph glyph-name="afii10092" horiz-adv-x="492" unicode="ъ" d="M-5 480v67h167v-213h89q93 0 143 -36q64 -46 64 -130q0 -42 -19.5 -79t-54.5 -58q-21 -14 -49.5 -21t-45.5 -8t-52 -2h-148v480h-94zM162 268v-201h58h21.5h23.5t19 1t22.5 3.5t18.5 6.5q60 25 60 90q0 54 -41 78v1q-34 21 -102 21h-80z"/>
<glyph glyph-name="afii10093" horiz-adv-x="633" unicode="ы" d="M497 547h73v-547h-73v547zM64 0v547h73v-213h89q94 0 143 -36q64 -46 64 -130q0 -42 -19.5 -79t-54.5 -58q-21 -14 -49.5 -21t-45 -8t-51.5 -2h-149zM137 268v-201h58h21.5h23.5t19.5 1t23 3.5t18.5 6.5q59 25 59 90q0 54 -41 78v1q-34 21 -101 21h-81z"/>
<glyph glyph-name="afii10094" horiz-adv-x="468" unicode="ь" d="M64 0v547h73v-213h89q94 0 143 -36q64 -46 64 -130q0 -42 -19.5 -79t-54.5 -58q-21 -14 -49.5 -21t-45 -8t-51.5 -2h-149zM137 268v-201h58h21.5h23.5t19.5 1t23 3.5t18.5 6.5q59 25 59 90q0 54 -41 78v1q-34 21 -101 21h-81z"/>
<glyph glyph-name="afii10095" horiz-adv-x="647" unicode="э" d="M527 315q-14 76 -76 124.5t-143 48.5q-56 0 -106.5 -29t-79.5 -78h-83q31 81 106 129.5t164 48.5q120 0 208 -82.5t88 -202.5q0 -123 -87.5 -205t-211.5 -82q-88 0 -158.5 46t-107.5 127h82q73 -102 192 -102q84 0 144.5 54t70.5 136v0v0v0v0h-1v0v0h-1v0v0h-1v0h-1v0h-1 v0h-1v0h-1h-1v0h-1h-1h-1h-1h-1h-1h-1h-1h-1h-1h-1h-1h-1h-1h-1h-1h-1h-1h-1h-1h-1h-1h-1h-1h-1h-1h-1h-1h-1h-1h-1h-1h-1h-1h-1h-1h-1h-1h-1h-1h-1h-1h-1h-1h-1h-1h-1h-1h-1h-1h-1h-1h-1h-1h-1h-1h-1h-1h-1h-1h-1h-1h-1h-1h-1h-1h-1h-1h-1h-1h-2h-1h-1h-1h-1h-1h-1h-1h-1 h-2h-1h-1h-1h-1h-1h-2h-1h-1h-1h-1h-2h-1h-1h-1h-1h-2h-1h-1h-1h-2h-1h-1h-1h-2h-1h-1h-1h-2h-1h-1h-2h-1h-1h-2h-1h-1h-1h-2h-1h-1h-2h-1h-1h-2h-1h-2h-1h-1h-2h-1h-1h-2h-1h-2h-1h-1h-2h-1h-2h-1h-1h-2h-1h-2h-1h-2h-1h-2h-1h-1h-2h-1h-2h-1h-2h-1h-2h-1h-2h-1h-2h-1h-2 h-1h-2h-1h-2h-1h-2h-1h-2h-2h-1h-2h-1h-2h-1h-2h-1h-2h-2h-1h-2h-1h-2h-1h-2h-2h-1h-2h-1h-2h-2h-1h-2h-2h-1h-2h-1h-2h-2h-1h-2h-2h-1h-2h-2h-1h-2h-2h-1h-2h-2h-1h-2h-2h-2h-1h-2h-2h-1h-2h-2h-2h-1h-2h-2h-2h-1h-2h-2h-2h-1h-2h-2h-2h-1h-2h-2h-2h-1h-2h-2h-2h-2h-1h-2 h-2h-2h-2h-1h-2h-2h-2h-2h-2h-1h-2h-2h-2h-2h-2h-2h-1h-2h-2h-2h-2h-2h-2h-9v67h390z"/>
<glyph glyph-name="afii10096" horiz-adv-x="816" unicode="ю" d="M204 248h-67v-248h-73v547h73v-232h69q17 105 96.5 174.5t187.5 69.5q114 0 199 -84t85 -198q0 -118 -83 -204t-201 -86q-111 0 -194 75.5t-92 185.5zM277 270q0 -88 62.5 -150t150.5 -62q90 0 150 64t60 155q0 90 -64 151q-63 60 -146 60q-90 0 -151.5 -64t-61.5 -154z "/>
<glyph glyph-name="afii10097" horiz-adv-x="492" unicode="я" d="M423 547l1 -547h-73v480h-74q-81 0 -113 -24q-20 -13 -32.5 -37t-12.5 -49q0 -68 63 -98q30 -14 110 -14h36l-194 -258h-90l149 198q-63 8 -105 55.5t-42 111.5q0 49 23 90t64 65q50 27 155 27h135z"/>
<glyph glyph-name="afii10071" horiz-adv-x="650" unicode="ё" d="M289 739v-126h-74v126h74zM436 739v-126h-74v126h74zM116 247q3 -77 66 -133t140 -56q62 0 117 32.5t79 87.5h77q-29 -83 -104 -137t-162 -54q-120 0 -203.5 83t-83.5 203q0 119 83 202.5t202 83.5q133 0 220 -106q36 -44 49 -92t15 -114h-495zM537 314q-14 73 -74 123.5 t-135 50.5q-78 0 -138.5 -49.5t-73.5 -124.5h421z"/>
<glyph glyph-name="afii10099" horiz-adv-x="670" unicode="ђ" d="M533 148q0 85 -32 131q-49 69 -141 69q-38 0 -75 -18t-60 -49q-28 -38 -28 -133v-148h-74v480h-111v67h111v192h74v-192h188v-67h-188v-152q23 43 68.5 67t97.5 24q114 0 187 -84q33 -38 45 -81.5t12 -105.5q0 -264 -247 -340v72q84 28 128.5 97.5t44.5 170.5z"/>
<glyph glyph-name="afii10100" horiz-adv-x="432" unicode="ѓ" d="M64 547h341v-66h-268v-481h-73v547zM295 785l35 -58l-193 -114l-34 56z"/>
<glyph glyph-name="afii10101" horiz-adv-x="647" unicode="є" d="M608 381h-83q-29 49 -79.5 78t-106.5 29q-81 0 -143 -48.5t-76 -124.5h390v-67v0v0v0v0h-1v0v0h-1v0h-1v0h-1v0h-1v0h-1h-1v0h-1h-1h-1h-1h-1h-1h-1h-1h-1h-1h-1h-1h-1h-1h-1h-1h-1h-1h-1h-1h-1h-1h-1h-1h-1h-1h-1h-1h-1h-1h-1h-1h-1h-1h-1h-1h-1h-1h-1h-1h-1h-1h-1h-1 h-1h-1h-1h-1h-1h-1h-1h-1h-1h-1h-1h-1h-1h-1h-1h-1h-1h-2h-1h-1h-1h-1h-1h-1h-1h-1h-1h-1h-1h-2h-1h-1h-1h-1h-1h-1h-1h-2h-1h-1h-1h-1h-1h-2h-1h-1h-1h-1h-2h-1h-1h-1h-2h-1h-1h-1h-2h-1h-1h-1h-2h-1h-1h-1h-2h-1h-1h-2h-1h-1h-2h-1h-1h-1h-2h-1h-2h-1h-1h-2h-1h-1h-2h-1 h-1h-2h-1h-2h-1h-1h-2h-1h-2h-1h-1h-2h-1h-2h-1h-2h-1h-1h-2h-1h-2h-1h-2h-1h-2h-1h-2h-1h-2h-1h-2h-1h-2h-1h-2h-1h-2h-1h-2h-1h-2h-1h-2h-1h-2h-1h-2h-2h-1h-2h-1h-2h-1h-2h-2h-1h-2h-1h-2h-2h-1h-2h-1h-2h-2h-1h-2h-2h-1h-2h-1h-2h-2h-1h-2h-2h-1h-2h-2h-1h-2h-2h-1h-2 h-2h-2h-1h-2h-2h-1h-2h-2h-2h-1h-2h-2h-1h-2h-2h-2h-1h-2h-2h-2h-1h-2h-2h-2h-2h-1h-2h-2h-2h-2h-1h-2h-2h-2h-2h-1h-2h-2h-2h-2h-2h-1h-2h-2h-2h-2h-2h-1h-2h-2h-2h-2h-2h-2h-2h-1h-2h-2h-9q10 -82 70.5 -136t144.5 -54q119 0 192 102h82q-37 -81 -107.5 -127t-158.5 -46 q-124 0 -211.5 82t-87.5 205q0 120 88 202.5t208 82.5q89 0 164 -48.5t106 -129.5z"/>
<glyph glyph-name="afii10102" horiz-adv-x="388" unicode="ѕ" d="M92 161q-2 -42 27.5 -72.5t71.5 -30.5q40 0 68 25.5t28 65.5q0 45 -28.5 68t-77.5 37q-73 23 -99 48q-44 39 -44 104q0 66 46 109.5t112 43.5q61 0 106 -44t45 -104h-74q0 35 -24 56t-61 21q-32 0 -54 -22t-22 -54q0 -21 7.5 -36.5t23.5 -26t29 -16t36 -12.5 q35 -11 59 -22.5t47.5 -29.5t35 -45t11.5 -63q0 -77 -50 -125.5t-127 -48.5q-70 0 -120 52t-46 122h74z"/>
<glyph glyph-name="afii10103" horiz-adv-x="200" unicode="і" d="M63 547h74v-547h-74v547zM63 739h74v-126h-74v126z"/>
<glyph glyph-name="afii10104" horiz-adv-x="200" unicode="ї" d="M64 739v-126h-74v126h74zM211 739v-126h-74v126h74zM63 547h74v-547h-74v547z"/>
<glyph glyph-name="afii10105" horiz-adv-x="203" unicode="ј" d="M140 50q0 -38 -0.5 -53t-4.5 -43.5t-15 -48.5t-30 -40q-54 -57 -135 -57v72q30 1 51.5 11.5t33 25t17.5 39t7.5 44.5t1.5 50v497h74v-497zM66 739h74v-126h-74v126z"/>
<glyph glyph-name="afii10106" horiz-adv-x="756" unicode="љ" d="M424 267v-199h58q4 0 26 -0.5t30 0t23.5 3t26.5 7.5q59 25 59 90q0 54 -41 78v1q-32 20 -101 20h-81zM352 479h-148l-133 -479h-78l156 547h275v-213h89q93 0 143 -36q64 -46 64 -130q0 -42 -19.5 -79t-54.5 -58q-21 -14 -49.5 -21t-45 -8t-51.5 -2h-149z"/>
<glyph glyph-name="afii10107" horiz-adv-x="856" unicode="њ" d="M524 267v-199h58q4 0 26 -0.5t30 0t23.5 3t26.5 7.5q59 25 59 90q0 54 -41 78v1q-32 20 -101 20h-81zM451 267h-314v-267h-74v547h74v-213h314v213h73v-213h89q93 0 143 -36q64 -46 64 -130q0 -42 -19.5 -79t-54.5 -58q-21 -14 -49.5 -21t-45 -8t-51.5 -2h-149v267z"/>
<glyph glyph-name="afii10108" horiz-adv-x="670" unicode="ћ" d="M197 480v-152q23 43 68.5 67t97.5 24q114 0 187 -84q57 -65 57 -187v-148h-74v148q0 85 -32 131q-49 69 -141 69q-38 0 -75 -18t-60 -49q-28 -38 -28 -133v-148h-74v480h-111v67h111v192h74v-192h188v-67h-188z"/>
<glyph glyph-name="afii10109" horiz-adv-x="502" unicode="ќ" d="M63 547h74v-327l251 327h95l-212 -274l226 -273h-95l-178 216l-87 -112v-104h-74v547zM330 785l35 -58l-193 -114l-34 56z"/>
<glyph glyph-name="afii10110" horiz-adv-x="536" unicode="ў" d="M527 547l-316 -739h-78l86 209l-210 530h79l175 -436l185 436h79zM179 706q11 -23 36 -34.5t53 -11.5t53 11.5t36 34.5h63q-13 -51 -55 -77t-97 -26t-97 26t-55 77h63z"/>
<glyph glyph-name="afii10193" horiz-adv-x="588" unicode="џ" d="M257 0h-193v547h73v-480h313v480h74v-547h-193v-86h-74v86z"/>
<glyph glyph-name="afii10050" unicode="Ґ" d="M260 151q-90 5 -152.5 74.5t-62.5 160.5q0 87 64 154t151 72v93h66v-93q62 -8 113 -49t70 -101h-83q-20 38 -59 58.5t-84 20.5q-65 0 -114.5 -46t-49.5 -110q0 -67 49.5 -115t116.5 -48q83 0 138 68h80q-18 -54 -68.5 -92.5t-108.5 -46.5v-89h-66v89z"/>
</font>
</defs>
</svg>
